<svg xmlns="http://www.w3.org/2000/svg" width="24" height="24" viewBox="0 0 24 24">
  <g id="Grupo_1335" data-name="Grupo 1335" transform="translate(-24 -12)">
    <rect id="Retângulo_1533" data-name="Retângulo 1533" width="24" height="24" transform="translate(24 12)" fill="none"/>
    <g id="email" transform="translate(24 12.923)">
      <path id="envelope" d="M18.989,1H5A5,5,0,0,0,0,6V17.99a5,5,0,0,0,5,5H18.989a5,5,0,0,0,5-5V6a5,5,0,0,0-5-5ZM5,3H18.989a3,3,0,0,1,2.778,1.886l-7.654,7.655a3.005,3.005,0,0,1-4.242,0L2.219,4.885A3,3,0,0,1,5,3Zm13.992,17.99H5a3,3,0,0,1-3-3V7.5l6.46,6.456a5,5,0,0,0,7.068,0L21.987,7.5V17.99A3,3,0,0,1,18.989,20.988Z" transform="translate(0 -1)" fill="#55d6a1"/>
    </g>
  </g>
</svg>
