<svg id="email" xmlns="http://www.w3.org/2000/svg" width="26" height="24" viewBox="0 0 26 24">
  <path id="envelope" d="M20.583,1H5.417A5.423,5.423,0,0,0,0,6.417v13a5.423,5.423,0,0,0,5.417,5.417H20.583A5.423,5.423,0,0,0,26,19.417v-13A5.423,5.423,0,0,0,20.583,1ZM5.417,3.167H20.583A3.25,3.25,0,0,1,23.6,5.211l-8.3,8.3a3.258,3.258,0,0,1-4.6,0l-8.3-8.3A3.25,3.25,0,0,1,5.417,3.167Zm15.167,19.5H5.417a3.25,3.25,0,0,1-3.25-3.25V8.042l7,7a5.424,5.424,0,0,0,7.661,0l7-7V19.417A3.25,3.25,0,0,1,20.583,22.667Z" transform="translate(0 -1)" fill="#00975e"/>
</svg>
