<svg xmlns="http://www.w3.org/2000/svg" width="20" height="24" viewBox="0 0 20 24">
  <g id="Terras" transform="translate(0 0)">
    <path id="Caminho_4534" data-name="Caminho 4534" d="M12,6a4,4,0,1,0,4,4A4,4,0,0,0,12,6Zm0,6a2,2,0,1,1,2-2A2,2,0,0,1,12,12Z" transform="translate(-2 0.001)" fill="#00a167"/>
    <path id="Caminho_4535" data-name="Caminho 4535" d="M11.945,24a5.233,5.233,0,0,1-4.287-2.2c-3.79-5.257-5.713-9.208-5.713-11.746a10,10,0,1,1,20,0c0,2.538-1.922,6.489-5.713,11.746A5.233,5.233,0,0,1,11.945,24Zm0-21.817a7.861,7.861,0,0,0-7.831,7.873c0,2.01,1.883,5.727,5.3,10.465a3.118,3.118,0,0,0,5.062,0c3.417-4.739,5.3-8.455,5.3-10.465a7.861,7.861,0,0,0-7.831-7.873Z" transform="translate(-1.945 0.002)" fill="#00a167"/>
  </g>
</svg>
