<svg xmlns="http://www.w3.org/2000/svg" width="24.306" height="24.3" viewBox="0 0 24.306 24.3">
  <g id="whatsapp" transform="translate(0.156 0.15)">
    <g id="Grupo_125" data-name="Grupo 125" transform="translate(5.506 5.506)">
      <g id="Grupo_124" data-name="Grupo 124">
        <path id="Caminho_4563" data-name="Caminho 4563" d="M129.959,126.411l-1.272-1.272a1.651,1.651,0,0,0-2.524.226l-.443.639a4.26,4.26,0,0,1-3.809-3.809l.639-.443a1.651,1.651,0,0,0,.226-2.524l-1.272-1.272a1.638,1.638,0,0,0-1.917-.3,3.984,3.984,0,0,0-2.062,3.048,8.5,8.5,0,0,0,2.728,6.962,8.941,8.941,0,0,0,6.077,2.795,5.776,5.776,0,0,0,.885-.067,3.984,3.984,0,0,0,3.048-2.061h0A1.638,1.638,0,0,0,129.959,126.411Zm-.991,1.247a2.568,2.568,0,0,1-1.977,1.292,7.918,7.918,0,0,1-8.027-8.026,2.569,2.569,0,0,1,1.292-1.977.169.169,0,0,1,.077-.018.2.2,0,0,1,.139.059l1.272,1.272a.194.194,0,0,1-.027.3l-1,.7a.729.729,0,0,0-.312.646,5.832,5.832,0,0,0,5.615,5.615.729.729,0,0,0,.646-.312l.7-1a.193.193,0,0,1,.3-.027l1.272,1.272A.188.188,0,0,1,128.969,127.658Z" transform="translate(-117.459 -117.469)" fill="#00975e" stroke="#00975e" stroke-width="0.3"/>
      </g>
    </g>
    <g id="Grupo_127" data-name="Grupo 127">
      <g id="Grupo_126" data-name="Grupo 126" transform="translate(0)">
        <path id="Caminho_4564" data-name="Caminho 4564" d="M20.486,3.515A12,12,0,0,0,.071,10.694a12.061,12.061,0,0,0,1.566,7.361L.386,22.722a.729.729,0,0,0,.893.893l4.667-1.25a12.005,12.005,0,0,0,14.54-1.878,12,12,0,0,0,0-16.971ZM19.455,19.455A10.494,10.494,0,0,1,6.441,20.961a.729.729,0,0,0-.573-.085l-3.747,1,1-3.747a.729.729,0,0,0-.085-.573,10.544,10.544,0,1,1,16.416,1.9Z" transform="translate(0)" fill="#00975e" stroke="#00975e" stroke-width="0.3"/>
      </g>
    </g>
  </g>
</svg>
