<svg xmlns="http://www.w3.org/2000/svg" width="120" height="67.692" viewBox="0 0 120 67.692"><g transform="translate(0 0)"><path d="M13.232,41.452a4.283,4.283,0,0,1-4.276-4.327V29.678h5.082l.755-6.692H8.956V16.4H2.264v6.59H0v6.692H2.264v9.461a9,9,0,0,0,9.006,9.005h3.824V41.452Zm15.9.2A6.225,6.225,0,0,1,25.157,40.2L35.17,35.716l6.39-2.867A11.8,11.8,0,0,0,39.4,28.07a12.776,12.776,0,1,0,.352,14.49c-1.61-.906-4.025-2.265-5.837-3.27a6,6,0,0,1-4.78,2.365m0-12.176a6.1,6.1,0,0,1,3.925,1.459L23.044,35.414a6.079,6.079,0,0,1,6.088-5.937M55.7,22.836a11.545,11.545,0,0,0-4.729,1.007l-6.642-.857V48.144h6.642V34.207A4.724,4.724,0,0,1,55.7,29.478a4.348,4.348,0,0,1,2.265.6l.553-6.894a10.562,10.562,0,0,0-2.818-.352M98.315,41.452a.807.807,0,0,1-.855-.8V23.038L90.769,24.4a12.455,12.455,0,0,0-6.088-1.56,12.755,12.755,0,1,0,6.943,23.447A4.57,4.57,0,0,0,95.3,48.144h4.125V41.452Zm-13.635.2a6.063,6.063,0,1,1,6.088-6.088,6.11,6.11,0,0,1-6.088,6.088m-.05-22.792a16.727,16.727,0,0,0-16.7,16.7V48.144H61.284V23.038h3.623A23.522,23.522,0,0,1,84.63,12.169a22.593,22.593,0,0,1,9.056,1.862l-3.018,5.987a16.125,16.125,0,0,0-6.038-1.157m32.05,26.415A6.81,6.81,0,0,0,118.189,41a7.034,7.034,0,0,0-.15-1.51c-.655-3.774-4.026-5.684-6.491-6.943-1.057-.5-2.667-1.157-2.667-2.163a1.311,1.311,0,0,1,.151-.554,1.058,1.058,0,0,1,1.006-.554h.151a7.279,7.279,0,0,1,3.522,1.561l4.428-4.981a15.861,15.861,0,0,0-3.949-2.375,40.029,40.029,0,0,1-4.741,4.186,38.873,38.873,0,0,1-4.087-3.53,8.948,8.948,0,0,0-1.511,1.418,6.984,6.984,0,0,0-1.66,4.478,9.876,9.876,0,0,0,.1,1.307c.655,4.126,3.371,5.384,6.138,7.145l.151.05c1.258.654,2.818,1.66,2.818,2.515a.546.546,0,0,1-.05.252,1.183,1.183,0,0,1-1.208.6,10.961,10.961,0,0,1-4.377-1.56L102.19,45.98a17.322,17.322,0,0,0,8,2.366,7.753,7.753,0,0,0,6.491-3.07" transform="translate(0 2.112)" fill="#2eb279" fill-rule="evenodd"/><path d="M32.562,49.078h4.85c1.854,0,3.17.891,3.17,2.362a2.2,2.2,0,0,1-1.371,2.037V53.6a2.68,2.68,0,0,1,2.218,2.562c0,1.811-1.655,2.814-3.762,2.814h-5.1ZM36.9,53.095a.944.944,0,0,0,1.047-.919c0-.552-.424-.891-1.047-.891H35.361v1.81Zm.241,3.593a1.1,1.1,0,0,0,1.231-1.047c0-.622-.5-1.019-1.245-1.019H35.361v2.065Z" transform="translate(5.649 8.514)" fill="#032819"/><path d="M48.454,54.509V49.077h2.8v5.277c0,1.612.765,2.376,1.994,2.376,1.246,0,2-.75,2-2.32V49.077h2.8v5.376c0,3.211-1.923,4.726-4.809,4.726s-4.781-1.543-4.781-4.669" transform="translate(8.406 8.514)" fill="#032819"/><path d="M68.569,55.191l-3.862-6.126,2.971.014,2.248,3.664h.142l2.278-3.664H75.29l-3.877,6.083v3.819l-2.843-.013Z" transform="translate(11.225 8.512)" fill="#032819"/><path d="M94.829,17.285a6.735,6.735,0,1,1,6.735-6.733,6.734,6.734,0,0,1-6.735,6.733M94.829,0A10.551,10.551,0,0,0,84.278,10.552c0,9.069,10.551,16.632,10.551,16.632s10.551-7.563,10.551-16.632A10.551,10.551,0,0,0,94.829,0" transform="translate(14.62 0)" fill="#032819" fill-rule="evenodd"/></g></svg>