<svg xmlns="http://www.w3.org/2000/svg" xmlns:xlink="http://www.w3.org/1999/xlink" width="187.891" height="105.99" viewBox="0 0 187.891 105.99">
  <defs>
    <clipPath id="clip-path">
      <rect id="Retângulo_659" data-name="Retângulo 659" width="187.891" height="105.99" fill="none"/>
    </clipPath>
  </defs>
  <g id="Logo_Terras_Buy" data-name="Logo Terras Buy" transform="translate(0 0)">
    <g id="Grupo_110" data-name="Grupo 110" transform="translate(0 0)" clip-path="url(#clip-path)">
      <path id="Caminho_4546" data-name="Caminho 4546" d="M20.718,58.019a6.706,6.706,0,0,1-6.7-6.774V39.585h7.958l1.181-10.479H14.023V18.787H3.544V29.106H0V39.585H3.544V54.4a14.087,14.087,0,0,0,14.1,14.1h5.988V58.019Zm24.895.316a9.747,9.747,0,0,1-6.223-2.284l15.678-7.013,10-4.489a18.484,18.484,0,0,0-3.388-7.484,20,20,0,1,0,.551,22.688c-2.521-1.418-6.3-3.546-9.139-5.121a9.4,9.4,0,0,1-7.484,3.7m0-19.065a9.546,9.546,0,0,1,6.146,2.284L36.081,48.566a9.518,9.518,0,0,1,9.532-9.3m41.6-10.4a18.077,18.077,0,0,0-7.4,1.576l-10.4-1.341V68.5h10.4V46.675a7.4,7.4,0,0,1,7.4-7.4,6.809,6.809,0,0,1,3.546.946l.865-10.795a16.538,16.538,0,0,0-4.412-.551m66.728,29.148a1.263,1.263,0,0,1-1.339-1.259V29.187l-10.477,2.126a19.5,19.5,0,0,0-9.532-2.442,19.971,19.971,0,1,0,10.872,36.713,7.156,7.156,0,0,0,5.751,2.914h6.458V58.019Zm-21.349.316a9.493,9.493,0,1,1,9.532-9.532,9.566,9.566,0,0,1-9.532,9.532m-.079-35.688A26.191,26.191,0,0,0,106.355,48.8V68.5h-10.4V29.187h5.672a36.83,36.83,0,0,1,30.883-17.018,35.375,35.375,0,0,1,14.179,2.916l-4.726,9.374a25.247,25.247,0,0,0-9.453-1.812m50.183,41.36a10.663,10.663,0,0,0,2.363-6.7,11.014,11.014,0,0,0-.235-2.365c-1.025-5.909-6.3-8.9-10.163-10.872-1.655-.786-4.176-1.812-4.176-3.386a2.053,2.053,0,0,1,.237-.867,1.656,1.656,0,0,1,1.575-.867h.237c1.654,0,3.859,1.262,5.514,2.444l6.932-7.8a24.834,24.834,0,0,0-6.183-3.719,62.674,62.674,0,0,1-7.423,6.554,60.867,60.867,0,0,1-6.4-5.527,14.011,14.011,0,0,0-2.367,2.22,10.936,10.936,0,0,0-2.6,7.011,15.464,15.464,0,0,0,.156,2.047c1.025,6.46,5.279,8.43,9.611,11.188l.237.079c1.97,1.023,4.412,2.6,4.412,3.938a.855.855,0,0,1-.079.4,1.852,1.852,0,0,1-1.891.944c-1.891,0-4.728-1.259-6.853-2.442l-5.593,8.823c3.386,1.891,8.035,3.7,12.525,3.7a12.139,12.139,0,0,0,10.163-4.807" transform="translate(0 10.191)" fill="#2db478" fill-rule="evenodd"/>
      <path id="Caminho_4547" data-name="Caminho 4547" d="M32.562,49.078h7.594c2.9,0,4.963,1.395,4.963,3.7a3.441,3.441,0,0,1-2.146,3.19v.2c2.1.577,3.473,2.017,3.473,4.011,0,2.835-2.591,4.406-5.891,4.406H32.562Zm6.8,6.289A1.478,1.478,0,0,0,41,53.929c0-.864-.663-1.395-1.639-1.395H36.944v2.833Zm.377,5.626a1.719,1.719,0,0,0,1.927-1.639c0-.974-.775-1.595-1.949-1.595H36.944v3.234Z" transform="translate(27.267 41.098)" fill="#f5f5f5"/>
      <path id="Caminho_4548" data-name="Caminho 4548" d="M48.454,57.582V49.077h4.384V57.34c0,2.525,1.2,3.721,3.122,3.721,1.951,0,3.125-1.174,3.125-3.632V49.077h4.384v8.417c0,5.027-3.011,7.4-7.53,7.4-4.54,0-7.486-2.416-7.486-7.311" transform="translate(40.575 41.097)" fill="#f5f5f5"/>
      <path id="Caminho_4549" data-name="Caminho 4549" d="M70.754,58.656l-6.047-9.591,4.652.022,3.52,5.736H73.1l3.566-5.736h4.608l-6.071,9.525v5.979l-4.452-.02Z" transform="translate(54.185 41.087)" fill="#f5f5f5"/>
      <path id="Caminho_4550" data-name="Caminho 4550" d="M100.8,27.065a10.545,10.545,0,1,1,10.545-10.543A10.543,10.543,0,0,1,100.8,27.065M100.8,0a16.521,16.521,0,0,0-16.52,16.522c0,14.2,16.52,26.041,16.52,26.041s16.52-11.842,16.52-26.041A16.521,16.521,0,0,0,100.8,0" transform="translate(70.573 0.001)" fill="#f5f5f5" fill-rule="evenodd"/>
    </g>
  </g>
</svg>
